<?xml version="1.0" encoding="utf-8"?>
<!-- Generator: Adobe Illustrator 21.0.2, SVG Export Plug-In . SVG Version: 6.00 Build 0)  -->
<svg version="1.1" id="Layer_1" xmlns="http://www.w3.org/2000/svg" xmlns:xlink="http://www.w3.org/1999/xlink" x="0px" y="0px"
	 viewBox="0 0 1181.9 376" style="enable-background:new 0 0 1181.9 376;" xml:space="preserve">
<style type="text/css">
	.st0{fill:#333333;}
	.st1{fill:#4CA3FF;}
</style>
<g>
	<g>
		<path class="st0" d="M99.6,82.3v23.6c-2,0-4.1-0.3-5.8-0.3c-37.6,0-60.5,23.9-60.5,66.3v91.5H9.1V83.7h23.2v35.2
			C43.6,95,66.5,82.3,99.6,82.3z"/>
		<path class="st0" d="M281,181H130.7c2.7,37.6,31.4,62.5,70.7,62.5c21.9,0,41.3-7.9,55-23.6l13.7,15.7
			c-16.1,19.1-41,29.4-69.3,29.4c-56,0-94.3-38.3-94.3-91.5c0-53.3,37.2-91.2,87.8-91.2c50.6,0,87.1,37.2,87.1,91.2
			C281.3,175.6,281,178.3,281,181z M130.7,162.9h127.4c-3.1-35.2-28.7-59.8-63.9-59.8C159.4,103.2,133.8,127.8,130.7,162.9z"/>
		<path class="st1" d="M298.1,121.9c0-10.6,8.2-18.4,18.1-18.4s18.4,7.9,18.4,18.4s-8.5,18.8-18.4,18.8S298.1,132.4,298.1,121.9z
			 M298.1,225.2c0-10.6,8.2-18.4,18.1-18.4s18.4,7.9,18.4,18.4c0,10.6-8.5,18.8-18.4,18.8S298.1,235.8,298.1,225.2z"/>
		<path class="st0" d="M665.6,159.2v104.2h-24.3V161.6c0-37.9-19.1-57.4-51.6-57.4c-36.9,0-60.1,23.9-60.1,64.9v94.3h-24.3V161.6
			c0-37.9-19.1-57.4-51.9-57.4c-36.5,0-60.1,23.9-60.1,64.9v94.3h-24.3V83.7h23.2v32.8C405,95,428.2,82.3,458.2,82.3
			c29.7,0,52.9,12.6,63.9,37.9c13-23.2,38.6-37.9,71-37.9C636.9,82.3,665.6,107.6,665.6,159.2z"/>
		<path class="st0" d="M708.9,27c0-9.2,7.9-17.1,17.8-17.1c9.9,0,17.8,7.5,17.8,16.7c0,9.9-7.5,17.8-17.8,17.8
			C716.8,44.4,708.9,36.6,708.9,27z M714.4,83.7h24.3v179.7h-24.3V83.7z"/>
		<path class="st0" d="M954.5,159.2v104.2h-24.3V161.6c0-37.9-19.8-57.4-54-57.4c-38.6,0-62.8,23.9-62.8,64.9v94.3h-24.3V83.7h23.2
			v33.1c13-21.9,37.2-34.5,68.3-34.5C924.5,82.3,954.5,107.6,954.5,159.2z"/>
		<path class="st0" d="M1168,9.9v253.4h-23.2v-35.5c-14.7,24.3-39.6,37.2-69.3,37.2c-51.2,0-89.5-37.2-89.5-91.5
			c0-54.3,38.3-91.2,89.5-91.2c28.7,0,53.3,12.3,68.3,35.5V9.9H1168z M1144.1,173.5c0-42-28.7-70-66.6-70c-38.3,0-66.9,28-66.9,70
			s28.7,70,66.9,70C1115.4,243.6,1144.1,215.5,1144.1,173.5z"/>
	</g>
</g>
<g>
	<path class="st1" d="M715,286.5h4.9v73.2H715V286.5z"/>
	<path class="st1" d="M734.2,291.8c0-2.2,1.8-4,4-4c2.3,0,4,1.8,4,3.9c0,2.3-1.8,4-4,4C736,295.7,734.2,293.9,734.2,291.8z
		 M735.8,308.3h4.9v51.5h-4.9V308.3z"/>
	<path class="st1" d="M762.5,300.8v7.5h16.5v4.2h-16.4v47.3h-4.9v-47.3h-9.5v-4.2h9.5v-7.9c0-8.6,5.1-14.2,14.3-14.2
		c3.8,0,7.7,1.1,10.2,3.4l-2,3.8c-2.1-1.9-4.9-2.9-8-2.9C765.7,290.4,762.5,293.9,762.5,300.8z"/>
	<path class="st1" d="M826.7,335.2h-44.3c0.5,12.2,9.5,20.5,21.8,20.5c6.5,0,12.5-2.4,16.5-7.2l2.9,3.3c-4.5,5.5-11.6,8.4-19.4,8.4
		c-15.6,0-26.6-10.9-26.6-26.2s10.6-26.2,24.7-26.2c14.1,0,24.6,10.7,24.6,26C826.8,334.2,826.7,334.7,826.7,335.2z M782.5,331.3
		H822c-0.7-11.2-8.8-19.1-19.7-19.1C791.3,312.2,783.3,320.1,782.5,331.3z"/>
	<path class="st0" d="M859.9,297h3.2v63.1h-3.2V297z"/>
	<path class="st1" d="M894.2,353.6l2.3-3.9c3.9,3.4,11,6.2,18.6,6.2c10.9,0,15.2-3.8,15.2-9.7c0-15-34.2-3.9-34.2-24.2
		c0-7.8,6.5-14.1,19.5-14.1c6.5,0,13.6,2,17.7,5l-2.3,3.9c-4.3-3.2-10-4.6-15.5-4.6c-10.1,0-14.5,4.1-14.5,9.7
		c0,15.5,34.2,4.5,34.2,24.2c0,8.4-7.2,14.1-20.3,14.1C906.4,360.2,898.3,357.3,894.2,353.6z"/>
	<path class="st1" d="M938.4,334c0-15.3,11-26.2,25.8-26.2c14.8,0,25.8,10.9,25.8,26.2s-11,26.2-25.8,26.2
		C949.4,360.2,938.4,349.3,938.4,334z M984.9,334c0-12.9-8.9-21.7-20.7-21.7c-11.8,0-20.7,8.8-20.7,21.7c0,12.9,8.9,21.7,20.7,21.7
		C976,355.7,984.9,346.9,984.9,334z"/>
	<path class="st1" d="M1024.7,307.9v4.8c-0.4,0-0.8-0.1-1.2-0.1c-11.5,0-18.3,7.6-18.3,20.3v26.8h-4.9v-51.5h4.7v11.3
		C1008.2,312,1015,307.9,1024.7,307.9z"/>
	<path class="st1" d="M1061.3,356.5c-2.6,2.5-6.7,3.7-10.6,3.7c-9.1,0-14-5.3-14-14v-33.7h-9.5v-4.2h9.5V297h4.9v11.3h16.4v4.2
		h-16.4v33.2c0,6.6,3.3,10.3,9.6,10.3c3.1,0,5.9-1,8-2.9L1061.3,356.5z"/>
	<path class="st1" d="M1111.7,335.2h-44.3c0.5,12.2,9.5,20.5,21.8,20.5c6.5,0,12.5-2.4,16.5-7.2l2.9,3.3c-4.5,5.5-11.6,8.4-19.4,8.4
		c-15.6,0-26.6-10.9-26.6-26.2s10.6-26.2,24.7-26.2c14.1,0,24.6,10.7,24.6,26C1111.8,334.2,1111.7,334.7,1111.7,335.2z
		 M1067.5,331.3h39.5c-0.7-11.2-8.8-19.1-19.7-19.1C1076.3,312.2,1068.3,320.1,1067.5,331.3z"/>
	<path class="st1" d="M1168,286.5v73.2h-4.8v-12.1c-4,8-11.8,12.5-21.1,12.5c-14.5,0-25.5-10.8-25.5-26.2c0-15.5,11-26.2,25.5-26.2
		c9.2,0,16.9,4.5,21,12.3v-33.7H1168z M1163.1,334c0-12.9-8.9-21.7-20.7-21.7s-20.7,8.8-20.7,21.7c0,12.9,8.9,21.7,20.7,21.7
		S1163.1,346.9,1163.1,334z"/>
</g>
</svg>
