<?xml version="1.0" encoding="utf-8"?>
<!-- Generator: Adobe Illustrator 22.1.0, SVG Export Plug-In . SVG Version: 6.00 Build 0)  -->
<svg version="1.1" id="Layer_1" xmlns="http://www.w3.org/2000/svg" xmlns:xlink="http://www.w3.org/1999/xlink" x="0px" y="0px"
	 viewBox="0 0 1181.9 418" style="enable-background:new 0 0 1181.9 418;" xml:space="preserve">
<style type="text/css">
	.st0{fill:#424141;}
	.st1{fill:#4CA3FF;}
</style>
<g>
	<path class="st0" d="M251.6,137.1c0,60.7-43.9,97.4-116.6,97.4H65.9v84.7H26V39.7h109C207.7,39.7,251.6,76.4,251.6,137.1z
		 M211.7,137.1c0-39.9-26.8-62.7-77.9-62.7H65.9v125.4h67.9C184.9,199.8,211.7,177.1,211.7,137.1z"/>
	<path class="st0" d="M385,105.6v37.1c-3.2-0.4-6-0.4-8.8-0.4c-41.1,0-66.7,25.2-66.7,71.5v105.4h-38.3V107.6h36.7v35.5
		C321.5,118.4,347.8,105.6,385,105.6z"/>
	<path class="st0" d="M380.6,213.4c0-63.1,46.7-107.8,110.2-107.8s109.8,44.7,109.8,107.8s-46.3,108.2-109.8,108.2
		S380.6,276.5,380.6,213.4z M561.9,213.4c0-45.1-30.4-74.3-71.1-74.3s-71.5,29.2-71.5,74.3s30.7,74.7,71.5,74.7
		S561.9,258.5,561.9,213.4z"/>
	<path class="st0" d="M550.7,386.3l12.4-29.6c7.6,6.4,18.8,10,31.1,10c20.4,0,31.5-12.8,31.5-37.1v-222H664v221.2
		c0,43.1-24,70.3-67.5,70.3C579.1,399.1,561.5,395.1,550.7,386.3z M619,42.1c0-14,11.2-25.2,26-25.2s26,10.8,26,24.4
		c0,14.4-10.8,25.6-26,25.6C630.2,66.9,619,56.1,619,42.1z"/>
	<path class="st0" d="M897.7,226.2H726c4.8,37.1,34.7,61.9,76.7,61.9c24.8,0,45.5-8.4,61.1-25.6l21.2,24.8
		c-19.2,22.4-48.3,34.3-83.5,34.3c-68.3,0-113.8-45.1-113.8-108.2c0-62.7,45.1-107.8,106.2-107.8s104.6,43.9,104.6,109
		C898.5,217.8,898.1,222.6,897.7,226.2z M726,198.6h135.8c-4-35.5-30.7-60.7-67.9-60.7C757.2,137.9,730,162.7,726,198.6z"/>
	<path class="st1" d="M1071,183.7c-37,20.9-81.2,37.4-102.9,45c-0.7,0.3-1.4,0.5-1.9,0.7l-0.1-0.2c0.6-0.2,1.2-0.5,1.9-0.7
		c74.2-29.1,119.1-84.6,137.7-112l47.3-77.4h-67l0,0c-2.3,0.1-9.1,0.8-13.5,8.4c-0.1,0.1-42.7,78.5-42.7,78.5s-46.4-78-46.7-78.5
		c-5.2-9.1-14-8.3-14.2-8.4H902c28.7,45.1,57.4,89.8,85.6,135L896.9,319l23.1,0.2h18.7h15.5c1.1,0,5.4-0.3,5.9-0.4
		c13.1-1.9,17.1-9.7,17.4-10.3c0.1-0.2,48.4-82.2,48.4-82.2s49.5,81.5,49.8,82c0.4,0.6,5.5,10.7,23.3,10.7h15.5h43.4L1071,183.7z"/>
</g>
</svg>
