<?xml version="1.0" encoding="utf-8"?>
<!-- Generator: Adobe Illustrator 21.0.2, SVG Export Plug-In . SVG Version: 6.00 Build 0)  -->
<svg version="1.1" id="Layer_1" xmlns="http://www.w3.org/2000/svg" xmlns:xlink="http://www.w3.org/1999/xlink" x="0px" y="0px"
	 viewBox="0 0 1187 418" style="enable-background:new 0 0 1187 418;" xml:space="preserve">
<style type="text/css">
	.st0{fill:#004FC1;}
</style>
<g>
	<path class="st0" d="M258.7,133.1c0,60.7-43.9,97.4-116.6,97.4H73v84.7H33.1V35.7h109C214.8,35.7,258.7,72.4,258.7,133.1z
		 M218.8,133.1c0-39.9-26.8-62.7-77.9-62.7H73v125.4h67.9C192,195.8,218.8,173.1,218.8,133.1z"/>
	<path class="st0" d="M392.1,101.6v37.1c-3.2-0.4-6-0.4-8.8-0.4c-41.1,0-66.7,25.2-66.7,71.5v105.4h-38.3V103.6H315v35.5
		C328.6,114.4,354.9,101.6,392.1,101.6z"/>
	<path class="st0" d="M387.7,209.4c0-63.1,46.7-107.8,110.2-107.8s109.8,44.7,109.8,107.8c0,63.1-46.3,108.2-109.8,108.2
		S387.7,272.5,387.7,209.4z M569,209.4c0-45.1-30.4-74.3-71.1-74.3s-71.5,29.2-71.5,74.3c0,45.1,30.7,74.7,71.5,74.7
		S569,254.5,569,209.4z"/>
	<path class="st0" d="M557.8,382.3l12.4-29.6c7.6,6.4,18.8,10,31.1,10c20.4,0,31.5-12.8,31.5-37.1v-222h38.3v221.2
		c0,43.1-24,70.3-67.5,70.3C586.2,395.1,568.6,391.1,557.8,382.3z M626.1,38.1c0-14,11.2-25.2,26-25.2s26,10.8,26,24.4
		c0,14.4-10.8,25.6-26,25.6C637.3,62.9,626.1,52.1,626.1,38.1z"/>
	<path class="st0" d="M904.8,222.2H733.1c4.8,37.1,34.7,61.9,76.7,61.9c24.8,0,45.5-8.4,61.1-25.6l21.2,24.8
		c-19.2,22.4-48.3,34.3-83.5,34.3c-68.3,0-113.8-45.1-113.8-108.2c0-62.7,45.1-107.8,106.2-107.8s104.6,43.9,104.6,109
		C905.6,213.8,905.2,218.6,904.8,222.2z M733.1,194.6h135.8c-4-35.5-30.7-60.7-67.9-60.7C764.3,133.9,737.1,158.7,733.1,194.6z"/>
	<path class="st0" d="M1106.1,315.2L1030.2,209l-75.1,106.2H896l103.8-142.6l-98.2-137h58.7l71.5,99.4l70.7-99.4h56.3l-97.8,135
		l105,144.6H1106.1z"/>
</g>
</svg>
